<?xml version="1.0" standalone="no"?>
<!DOCTYPE svg PUBLIC "-//W3C//DTD SVG 20010904//EN"
 "http://www.w3.org/TR/2001/REC-SVG-20010904/DTD/svg10.dtd">
<svg version="1.0" xmlns="http://www.w3.org/2000/svg"
 width="500.000000pt" height="500.000000pt" viewBox="0 0 500.000000 500.000000"
 preserveAspectRatio="xMidYMid meet">
<metadata>
Created by potrace 1.16, written by Peter Selinger 2001-2019
</metadata>
<g transform="translate(0.000000,500.000000) scale(0.100000,-0.100000)"
fill="#000000" stroke="none">
<path d="M0 2500 l0 -2500 2500 0 2500 0 0 2500 0 2500 -2500 0 -2500 0 0
-2500z m4374 469 c30 -24 35 -65 9 -73 -10 -2 -70 -10 -133 -17 -63 -6 -124
-16 -135 -20 -15 -7 -13 -8 10 -4 17 2 84 7 151 11 l121 6 -5 -31 c-3 -19 0
-31 7 -31 7 0 -3 -13 -22 -30 -19 -16 -46 -47 -62 -70 -15 -22 -29 -39 -31
-38 -1 2 3 22 9 46 13 48 2 68 -31 58 -13 -5 -22 -19 -26 -47 -9 -58 -38 -110
-85 -152 -47 -42 -66 -46 -82 -16 -9 18 -6 32 17 81 24 50 26 61 14 69 -16 10
-23 3 -98 -95 -43 -56 -94 -92 -112 -81 -31 19 7 145 65 213 58 69 135 81 135
21 0 -24 4 -30 18 -27 25 5 27 43 3 67 -31 31 -87 28 -142 -7 -55 -36 -74 -57
-124 -140 -42 -70 -92 -112 -131 -112 -30 0 -31 26 -4 98 11 29 20 61 20 73 0
11 -21 42 -46 69 -25 27 -43 54 -39 60 4 6 4 18 1 27 -10 26 -36 -5 -36 -44 0
-62 -58 -182 -115 -240 -52 -53 -84 -69 -70 -35 15 35 55 177 55 194 0 10 -7
18 -15 18 -17 0 -40 -34 -49 -73 -10 -42 -98 -129 -127 -125 -20 2 -25 10 -27
40 -4 47 25 104 77 151 39 35 57 42 110 37 15 -1 22 3 19 12 -3 7 -23 14 -46
16 -76 6 -175 -67 -208 -154 -13 -34 -23 -46 -51 -55 -50 -16 -60 -1 -34 50
32 61 38 126 16 151 -24 27 -58 25 -92 -4 -25 -22 -28 -31 -28 -84 0 -47 5
-67 22 -90 l22 -30 -35 -32 c-22 -19 -44 -30 -57 -28 -19 3 -22 9 -22 53 0 31
9 67 23 95 25 50 22 58 -13 42 -16 -7 -36 -35 -55 -74 -17 -34 -45 -77 -62
-95 -56 -58 -88 -40 -88 49 0 55 2 60 53 116 28 33 68 86 87 118 31 54 37 60
63 56 16 -3 128 1 250 7 122 7 348 16 502 21 196 7 311 16 385 29 148 27 240
27 274 0z m-2050 -60 c-5 -8 34 -9 142 -4 147 8 179 9 281 6 l53 -1 -23 -53
c-13 -28 -36 -90 -52 -136 -35 -105 -89 -171 -140 -171 -61 0 -61 58 1 175 47
89 49 119 6 96 -26 -14 -54 -59 -87 -144 -61 -152 -156 -184 -181 -60 -6 28
-3 32 29 42 104 35 109 161 6 161 -50 0 -91 -40 -147 -146 l-43 -79 6 49 c4
27 16 79 27 114 16 53 29 74 71 113 54 50 63 57 51 38z m-168 -141 c-37 -111
-46 -128 -92 -176 -58 -61 -87 -66 -92 -18 -2 17 7 51 19 78 18 39 20 51 10
61 -10 10 -17 6 -35 -17 -91 -124 -142 -171 -173 -159 -31 12 -5 112 48 189
67 98 159 112 159 25 0 -14 5 -19 15 -15 23 9 19 60 -7 78 -31 22 -74 20 -124
-5 -51 -24 -93 -69 -136 -146 -57 -100 -141 -157 -183 -123 -22 18 -19 105 5
184 l21 66 67 0 c37 0 74 5 82 10 10 7 -7 10 -57 10 -76 0 -101 13 -35 18 20
1 147 15 282 31 135 16 250 30 256 30 6 1 -7 -53 -30 -121z m-856 -9 c-18 -27
-48 -62 -67 -76 -19 -14 -40 -40 -48 -57 -18 -39 -35 -60 -60 -73 -46 -23 -58
17 -30 97 20 57 19 82 -5 113 -27 34 -16 37 121 37 97 0 109 2 110 18 0 10 3
12 6 4 3 -7 -10 -35 -27 -63z m227 54 c-4 -3 -2 -12 4 -19 19 -23 -27 -149
-67 -184 -19 -16 -39 -30 -44 -30 -6 0 -10 20 -10 44 0 24 -9 73 -20 108 -11
34 -20 66 -20 70 0 4 33 9 73 11 39 1 76 4 81 5 5 1 6 -1 3 -5z m-532 -42
c-17 -10 -50 -40 -74 -67 l-43 -49 7 37 c13 68 12 73 -15 73 -18 0 -26 -7 -32
-25 -3 -14 -18 -62 -33 -108 -14 -45 -23 -87 -20 -92 14 -23 37 -6 75 54 46
73 120 146 149 146 38 0 46 -25 29 -97 -10 -42 -13 -75 -8 -88 16 -43 82 -40
130 5 l30 28 6 -24 c10 -38 50 -64 101 -64 37 0 51 6 78 33 27 27 57 46 118
75 4 2 7 -11 7 -28 0 -46 16 -68 54 -75 38 -8 87 10 132 48 l32 27 6 -30 c6
-35 42 -56 78 -47 14 4 43 25 66 49 36 36 42 39 42 21 0 -78 120 -66 182 17
l23 32 5 -49 c4 -42 8 -48 29 -48 19 0 27 10 46 61 33 87 63 143 92 170 41 38
103 28 103 -17 0 -21 -52 -67 -86 -75 -26 -7 -29 -21 -14 -73 25 -90 85 -104
155 -38 30 29 45 38 45 28 0 -32 30 -61 62 -61 42 0 96 27 121 62 l21 28 16
-42 c14 -40 18 -43 57 -46 36 -3 47 2 81 33 l40 35 10 -29 c22 -63 88 -61 153
3 29 28 43 34 91 38 53 4 57 3 63 -19 8 -32 47 -55 79 -47 15 3 47 27 72 51
43 44 45 45 38 17 -20 -83 -31 -99 -85 -131 -98 -57 -136 -116 -100 -152 27
-27 40 -26 82 2 21 14 48 51 75 101 30 57 55 89 86 111 65 48 101 93 138 178
34 78 47 89 70 62 18 -22 15 -62 -9 -123 -25 -63 -26 -95 -5 -116 31 -32 93
-18 147 32 l27 26 0 -27 c0 -15 9 -36 21 -48 30 -30 74 -19 124 31 l39 39 11
-32 c17 -53 87 -51 150 4 l35 31 -10 -27 c-12 -31 -6 -45 19 -45 11 0 27 20
45 58 53 109 145 206 176 187 17 -10 11 -60 -16 -146 -21 -66 -23 -83 -12 -90
22 -14 27 -11 49 34 48 93 119 180 136 163 4 -4 5 -108 1 -145 -2 -14 -19 -40
-39 -58 -33 -30 -43 -33 -100 -34 -62 -1 -444 -27 -464 -31 -5 -1 100 -5 235
-8 l245 -5 -55 -33 c-89 -52 -133 -60 -470 -82 -441 -28 -819 -59 -925 -76
-49 -8 -114 -14 -142 -14 l-53 0 0 -50 c0 -27 -4 -50 -10 -50 -5 0 -10 20 -10
45 0 45 0 45 -34 45 -19 0 -38 -5 -41 -10 -4 -6 -14 -9 -23 -8 -9 2 -16 -3
-14 -9 1 -7 -3 -13 -9 -13 -6 0 -9 7 -5 15 4 12 -3 15 -29 15 -26 0 -33 -3
-29 -15 4 -8 1 -15 -5 -15 -6 0 -10 5 -9 12 2 6 -9 11 -27 11 -20 0 -29 -4
-27 -13 2 -10 0 -11 -10 -2 -8 6 -36 12 -64 14 -42 3 -49 0 -48 -15 2 -13 -1
-15 -11 -7 -8 6 -41 10 -77 8 -60 -3 -63 -4 -66 -30 -4 -35 -22 -37 -22 -3 0
22 -4 25 -39 25 -22 0 -43 -4 -46 -10 -10 -16 -21 -12 -34 13 -6 12 -10 15 -7
6 3 -13 -6 -18 -47 -22 -28 -4 -54 -12 -59 -19 -6 -10 -10 -10 -17 1 -6 10
-24 12 -65 9 l-56 -5 -2 31 -1 31 -4 -31 c-4 -34 -2 -34 -195 -49 l-68 -6 0
42 c0 23 -3 39 -7 36 -3 -4 -6 -23 -5 -42 1 -31 -1 -35 -23 -35 -22 0 -25 4
-27 43 l-1 42 -4 -42 c-3 -35 -8 -44 -26 -47 -12 -3 -144 -13 -292 -22 -223
-14 -280 -14 -325 -4 -30 7 -132 15 -226 17 l-170 5 -12 70 c-9 48 -9 75 -2
88 17 31 64 50 124 50 59 0 68 5 60 37 -4 15 -21 25 -63 36 -31 9 -81 27 -111
41 l-55 26 112 0 c102 0 163 11 163 30 0 4 -35 10 -77 14 -42 3 -78 8 -80 9
-2 2 8 24 21 48 13 24 32 79 42 121 10 43 21 73 24 68 4 -7 39 -7 106 0 107
11 167 16 229 18 l40 2 -30 -19z m-430 -116 c-34 -118 -39 -125 -80 -125 -18
0 -40 -3 -49 -6 -14 -5 -16 5 -16 75 0 75 2 82 25 97 22 14 136 54 143 49 1
-1 -9 -41 -23 -90z"/>
<path d="M2690 2290 c-168 -18 -434 -55 -417 -58 11 -2 80 1 155 8 308 25 521
40 590 40 41 0 72 4 72 10 0 12 -285 11 -400 0z"/>
</g>
</svg>
